<?xml version="1.0" encoding="UTF-8"?>
<svg id="Calque_1" data-name="Calque 1" xmlns="http://www.w3.org/2000/svg" viewBox="0 0 508 173">
  <defs>
    <style>
      .cls-1 {
        font-size: 147.85px;
      }

      .cls-1, .cls-2, .cls-3, .cls-4, .cls-5 {
        font-family: Montserrat-Bold, Montserrat;
        font-weight: 700;
      }

      .cls-1, .cls-4, .cls-5 {
        fill: #41b1ea;
      }

      .cls-6, .cls-2, .cls-3 {
        fill: #fff;
      }

      .cls-2, .cls-5 {
        font-size: 152.27px;
      }

      .cls-3 {
        font-size: 98.33px;
      }

      .cls-7 {
        letter-spacing: -.02em;
      }

      .cls-4 {
        font-size: 31.94px;
      }
    </style>
  </defs>
  <rect width="508" height="173"/>
  <g>
    <text class="cls-5" transform="translate(104.61 130.96)"><tspan x="0" y="0">L</tspan></text>
    <text class="cls-1" transform="translate(269.78 129.67)"><tspan x="0" y="0">C</tspan></text>
    <text class="cls-3" transform="translate(145.2 94.31)"><tspan x="0" y="0">&amp;</tspan></text>
    <text class="cls-2" transform="translate(24.59 130.96)"><tspan x="0" y="0">A</tspan></text>
    <text class="cls-2" transform="translate(201.65 130.96)"><tspan x="0" y="0">A</tspan></text>
    <path class="cls-6" d="m484.78,91.73c-.57,3.57-2.79,6.07-5.26,8.5-9.11,9-18.17,18.05-27.18,27.14-2.44,2.46-4.95,4.68-8.52,5.24-.98,0-1.95,0-2.93,0-3.24-.63-5.76-2.44-7.98-4.78-.23-.24-.81-.33-1.17-.24-6.42,1.53-12.84,3.09-19.25,4.65-.43.1-.85.25-1.27.37h-2.93c-1.89-.48-3.74-1.01-5.31-2.25-2.1-1.65-3.45-3.76-4.13-6.33-3.32-12.64-6.65-25.29-10-37.92-.16-.6-.53-1.21-.96-1.65-1.71-1.73-3.49-3.39-5.24-5.08-2.58-2.5-4.17-5.52-4.69-9.08-.02-.16-.11-.32-.17-.48,0-11.47,0-22.95,0-34.42.06-.08.15-.16.16-.25.6-4.61,4.91-9.44,11.56-9.37,9.78.1,19.56.11,29.34,0,5.39-.06,9.73,1.83,13.45,5.71,15.68,16.33,31.42,32.59,47.18,48.84,2.4,2.47,4.67,4.94,5.3,8.48,0,.97,0,1.95,0,2.92Zm-95.15-61.49c-4.64,0-7.4,2.76-7.4,7.4,0,9.91.02,19.82-.01,29.72-.01,3.65,1.25,6.66,3.9,9.2,15.91,15.28,31.79,30.59,47.68,45.89,1.3,1.25,2.6,2.52,3.91,3.75,2.74,2.57,6.85,2.57,9.52-.08,10.36-10.31,20.7-20.63,31.03-30.97,2.82-2.82,2.78-6.76-.04-9.68-15.66-16.22-31.33-32.43-47-48.64-.92-.95-1.85-1.89-2.75-2.86-2.39-2.57-5.36-3.75-8.85-3.74-4.98.02-9.96,0-14.94,0-5.01,0-10.03,0-15.04,0Zm7.65,70.35c1.92,7.31,3.86,14.62,5.78,21.94,1.16,4.41,4.43,6.37,8.83,5.29,5.2-1.27,10.4-2.53,15.6-3.79.33-.08.65-.19,1.17-.34-11.25-10.84-22.41-21.58-33.56-32.32-.07.02-.14.05-.21.07.8,3.05,1.59,6.1,2.39,9.14Z"/>
    <path class="cls-6" d="m400.09,52.51c2.45,0,4.45-2.01,4.44-4.46,0-2.44-2.04-4.46-4.47-4.45-2.43.01-4.47,2.05-4.46,4.47,0,2.43,2.04,4.44,4.48,4.44Z"/>
    <text class="cls-4" transform="translate(405.56 72.3) rotate(44.33)"><tspan x="0" y="0">li</tspan><tspan class="cls-7" x="19.23" y="0">k</tspan><tspan x="39.57" y="0">e</tspan></text>
  </g>
</svg>